G04 ================== begin FILE IDENTIFICATION RECORD ==================*
G04 Layout Name:  H:/Projet_S8/Typon/allegro/carte.brd*
G04 Film Name:    TOP*
G04 File Format:  Gerber RS274X*
G04 File Origin:  16.0-s007*
G04 Origin Date:  Mon Mar 21 09:26:54 2011*
G04 *
G04 Layer:  BOARD GEOMETRY/OUTLINE*
G04 Layer:  ETCH/TOP*
G04 Layer:  PIN/TOP*
G04 Layer:  VIA CLASS/TOP*
G04 *
G04 Offset:    (0 0)*
G04 Mirror:    No*
G04 Mode:      Positive*
G04 Rotation:  0*
G04 FullContactRelief:  No*
G04 UndefLineWidth:     0*
G04 ================== end FILE IDENTIFICATION RECORD ====================*
%FSLAX35Y35*MOIN*%
%IR0*IPPOS*OFA0.00000B0.00000*MIA0B0*SFA1.00000B1.00000*%
%ADD10C,.062*%
%ADD14C,.075*%
%ADD13R,.075X.075*%
%ADD12C,.1*%
%ADD16C,.13*%
%ADD11R,.2X.2*%
%ADD15R,.08X.055*%
%ADD17C,.03*%
%ADD18C,.015*%
G75*
%LPD*%
G75*
G54D10*
X125000Y305000D03*
Y865000D03*
X685000Y305000D03*
Y865000D03*
G54D11*
X180000Y350000D03*
Y410000D03*
X250000Y350000D03*
G54D12*
X170000Y480000D03*
X180000Y830000D03*
Y810000D03*
X190000Y480000D03*
X200000Y830000D03*
Y810000D03*
X240000Y400000D03*
X220000D03*
X270000Y550000D03*
X250000D03*
X270000Y830000D03*
Y810000D03*
X290000Y410000D03*
Y830000D03*
Y810000D03*
X310000Y410000D03*
X360000Y830000D03*
Y810000D03*
X380000Y830000D03*
Y810000D03*
X450000Y830000D03*
Y810000D03*
X470000Y830000D03*
Y810000D03*
G54D13*
X180000Y550000D03*
X190000D03*
X200000D03*
G54D14*
X180000Y690000D03*
Y730000D03*
X240000Y472600D03*
X270000Y500000D03*
Y480000D03*
Y690000D03*
Y730000D03*
X292100Y505000D03*
X318300Y475000D03*
X360000Y690000D03*
Y730000D03*
X342500Y740000D03*
X379800Y406400D03*
Y533800D03*
X369000Y726500D03*
X399800Y399100D03*
X450000Y700000D03*
Y740000D03*
X472300Y789600D03*
X492200Y440000D03*
X496900Y782300D03*
X527700Y710000D03*
X550200Y402700D03*
X569200Y710000D03*
Y760000D03*
X575000Y827500D03*
Y847500D03*
Y837500D03*
X577600Y395400D03*
X587500Y640500D03*
X592600Y757300D03*
X596100Y782300D03*
X585000Y832500D03*
Y852500D03*
Y842500D03*
X628700Y767300D03*
X649200Y680000D03*
X667500Y789600D03*
G54D15*
X360000Y425000D03*
Y435000D03*
Y445000D03*
Y455000D03*
Y465000D03*
Y475000D03*
Y485000D03*
Y495000D03*
Y505000D03*
Y515000D03*
Y525000D03*
Y535000D03*
Y545000D03*
Y555000D03*
Y565000D03*
Y575000D03*
Y585000D03*
Y595000D03*
Y605000D03*
Y615000D03*
X420000Y435000D03*
Y425000D03*
Y465000D03*
Y455000D03*
Y445000D03*
Y495000D03*
Y485000D03*
Y475000D03*
Y525000D03*
Y515000D03*
Y505000D03*
Y555000D03*
Y545000D03*
Y535000D03*
Y585000D03*
Y575000D03*
Y565000D03*
Y615000D03*
Y605000D03*
Y595000D03*
X517000Y380000D03*
Y410000D03*
Y400000D03*
Y390000D03*
Y440000D03*
Y430000D03*
Y420000D03*
Y470000D03*
Y460000D03*
Y450000D03*
Y500000D03*
Y490000D03*
Y480000D03*
Y530000D03*
Y520000D03*
Y510000D03*
X580000Y690000D03*
Y700000D03*
Y710000D03*
Y740000D03*
Y720000D03*
Y750000D03*
Y760000D03*
Y770000D03*
X660000Y680000D03*
Y690000D03*
Y700000D03*
Y710000D03*
G54D16*
X520000Y340000D03*
Y651000D03*
X610000Y820000D03*
Y860000D03*
X673000Y340000D03*
Y651000D03*
G54D17*
G01X180000Y350000D02*
X250000D01*
G01X360000Y615000D02*
X255000D01*
X180000Y690000D01*
G01X190000Y550000D02*
Y558500D01*
X241500D01*
X250000Y550000D01*
G01Y408500D02*
X228500D01*
X220000Y400000D01*
G01X240000Y472600D02*
Y493800D01*
X261200Y515000D01*
X360000D01*
G01X250000Y408500D02*
Y350000D01*
G01X290000Y410000D02*
X288500Y408500D01*
X250000D01*
G01X360000Y495000D02*
X284800D01*
X279800Y500000D01*
X270000D01*
G01X360000Y485000D02*
X294800D01*
X289800Y480000D01*
X270000D01*
G01X360000Y690000D02*
X270000D01*
G01X292100Y505000D02*
X360000D01*
G01Y475000D02*
X318300D01*
G01X360000Y435000D02*
X385200D01*
X401500Y418700D01*
X462400D01*
X483700Y440000D01*
X492200D01*
G01X517000Y450000D02*
X508300D01*
X499500Y441200D01*
Y429200D01*
X484000Y413700D01*
X371300D01*
X360000Y425000D01*
G01Y505000D02*
X391800D01*
X411800Y525000D01*
X420000D01*
G01X360000Y515000D02*
X377800D01*
X397800Y535000D01*
X420000D01*
G01X360000D02*
X361200Y533800D01*
X379800D01*
G01X360000Y595000D02*
X369800D01*
X415300Y640500D01*
X587500D01*
G01X450000Y700000D02*
X440000Y690000D01*
X360000D01*
G01X342500Y740000D02*
X450000D01*
G01X379800Y406400D02*
X495600D01*
X509200Y420000D01*
X517000D01*
G01X369000Y726500D02*
X587900D01*
X628700Y767300D01*
G01X399800Y399100D02*
X504300D01*
X515200Y410000D01*
X517000D01*
G01Y470000D02*
X465500D01*
X430500Y435000D01*
X420000D01*
G01X517000Y460000D02*
X479000D01*
X444000Y425000D01*
X420000D01*
G01X517000Y490000D02*
X507100D01*
X502100Y495000D01*
X420000D01*
G01X517000Y480000D02*
X497100D01*
X492100Y485000D01*
X420000D01*
G01X517000Y510000D02*
X509200D01*
X504200Y515000D01*
X420000D01*
G01X517000Y500000D02*
X509200D01*
X504200Y505000D01*
X420000D01*
G01X527700Y710000D02*
X460000D01*
X450000Y700000D01*
G01X472300Y789600D02*
X667500D01*
G01X596100Y782300D02*
X496900D01*
G01X517000Y390000D02*
Y400000D01*
G01X577600Y395400D02*
X544100D01*
X529500Y410000D01*
X517000D01*
G01Y430000D02*
X522900D01*
X550200Y402700D01*
G01X569200Y710000D02*
X527700D01*
G01X649200Y680000D02*
X569200D01*
Y710000D01*
G01X592600Y757300D02*
Y738400D01*
X587700Y733500D01*
X569200D01*
Y760000D01*
G54D18*
G01X133100Y416900D02*
X135900Y407500D01*
X138800Y416900D01*
G01X142600Y407500D02*
Y416900D01*
X144900D01*
X145800Y416400D01*
X146500Y415800D01*
X147100Y414900D01*
X147600Y413800D01*
X147700Y412200D01*
X147600Y410600D01*
X147100Y409500D01*
X146500Y408600D01*
X145800Y408000D01*
X144900Y407500D01*
X142600D01*
G01X151800D02*
Y416900D01*
X154100D01*
X155000Y416400D01*
X155700Y415800D01*
X156300Y414900D01*
X156800Y413800D01*
X156900Y412200D01*
X156800Y410600D01*
X156300Y409500D01*
X155700Y408600D01*
X155000Y408000D01*
X154100Y407500D01*
X151800D01*
G01X136000Y483600D02*
X135300Y484100D01*
X134500Y484400D01*
X133600D01*
X132500Y483900D01*
X131700Y483100D01*
X131100Y482200D01*
X130700Y480600D01*
X130600Y479200D01*
X130800Y477800D01*
X131100Y476900D01*
X131800Y475900D01*
X132600Y475300D01*
X133400Y475000D01*
X134300D01*
X135100Y475300D01*
X135800Y475800D01*
X136300Y476400D01*
G01X140100Y476900D02*
X140800Y475800D01*
X141700Y475200D01*
X142800Y475000D01*
X143700Y475200D01*
X144600Y475900D01*
X145200Y476900D01*
X145300Y477800D01*
X145100Y478900D01*
X144300Y479700D01*
X143500Y480000D01*
X142400D01*
G01X143500D02*
X144100Y480500D01*
X144700Y481300D01*
X145000Y482200D01*
X144700Y483100D01*
X144100Y483900D01*
X143100Y484400D01*
X142100Y484200D01*
X141000Y483600D01*
G01X150900Y581900D02*
Y575200D01*
X151400Y573800D01*
X152300Y572800D01*
X153400Y572500D01*
X154600Y572800D01*
X155500Y573800D01*
X156000Y575200D01*
Y581900D01*
G01X160700Y573600D02*
X161500Y572800D01*
X162400Y572500D01*
X163300Y572800D01*
X164100Y573800D01*
X164700Y575200D01*
X165000Y576600D01*
Y578300D01*
X164700Y579700D01*
X164100Y581000D01*
X163500Y581600D01*
X162600Y581900D01*
X161700Y581600D01*
X161000Y581000D01*
X160600Y580000D01*
X160300Y578800D01*
X160600Y577700D01*
X161200Y576600D01*
X161800Y575900D01*
X162600Y575800D01*
X163600Y576100D01*
X164300Y576900D01*
X165000Y578300D01*
G01X153800Y310000D02*
Y319400D01*
X158100D01*
G01X156500Y314900D02*
X153800D01*
G01X165100Y310000D02*
X164500Y310200D01*
X163800Y310800D01*
X163300Y311900D01*
X163100Y313100D01*
X163300Y314400D01*
X163800Y315500D01*
X164500Y316100D01*
X165100Y316300D01*
X165800Y316100D01*
X166500Y315500D01*
X167000Y314400D01*
X167100Y313100D01*
X167000Y311900D01*
X166500Y310800D01*
X165800Y310200D01*
X165100Y310000D01*
G01X172700D02*
Y316300D01*
G01Y315000D02*
X173300Y315600D01*
X173900Y316100D01*
X174700Y316300D01*
X175300Y316100D01*
X176000Y315600D01*
G01X181800Y314200D02*
X185500D01*
X185200Y315300D01*
X184600Y316000D01*
X183800Y316300D01*
X183000Y316100D01*
X182300Y315600D01*
X181800Y314500D01*
X181600Y313600D01*
Y312700D01*
X181800Y311700D01*
X182400Y310800D01*
X183100Y310200D01*
X183900Y310000D01*
X184700Y310300D01*
X185500Y311300D01*
G01X191000Y311100D02*
X191600Y310500D01*
X192400Y310000D01*
X193100D01*
X193800Y310300D01*
X194200Y310800D01*
X194500Y311400D01*
X194400Y312400D01*
X193900Y312800D01*
X191800Y313800D01*
X191400Y314900D01*
X191600Y315600D01*
X192100Y316100D01*
X192700Y316300D01*
X193400Y316100D01*
X194100Y315600D01*
G01X201900Y319400D02*
Y310000D01*
G01X200300Y316300D02*
X203600D01*
G01X209700Y313100D02*
X212600D01*
G01X221000Y314700D02*
X223300D01*
Y311900D01*
X222700Y310900D01*
X221800Y310300D01*
X220700Y310000D01*
X219500Y310300D01*
X218700Y310900D01*
X218000Y311900D01*
X217600Y313000D01*
X217400Y314200D01*
Y315300D01*
X217600Y316300D01*
X218000Y317400D01*
X218700Y318300D01*
X219400Y318900D01*
X220300Y319400D01*
X221200D01*
X222100Y319100D01*
X222800Y318500D01*
G01X227600Y316300D02*
Y311900D01*
X228100Y310800D01*
X228700Y310200D01*
X229500Y310000D01*
X230400Y310200D01*
X231000Y310800D01*
X231500Y311900D01*
G01Y310000D02*
Y316300D01*
G01X237100Y307600D02*
X237900Y307000D01*
X238900Y306900D01*
X239700Y307000D01*
X240400Y307800D01*
X240800Y308900D01*
Y316300D01*
G01Y315000D02*
X240400Y315600D01*
X239700Y316100D01*
X238900Y316300D01*
X237900Y316000D01*
X237400Y315300D01*
X236900Y314200D01*
X236700Y313100D01*
X236800Y312200D01*
X237300Y311100D01*
X237900Y310300D01*
X238900Y310000D01*
X239600Y310200D01*
X240400Y310800D01*
X240800Y311400D01*
G01X247900Y310000D02*
Y319400D01*
G01X257100Y316300D02*
Y310000D01*
G01Y318800D02*
X256900Y318900D01*
Y319200D01*
X257100Y319400D01*
X257400Y319200D01*
Y318900D01*
X257100Y318800D01*
G01X264400Y310000D02*
Y316300D01*
G01Y314700D02*
X264900Y315500D01*
X265500Y316100D01*
X266500Y316300D01*
X267300Y316100D01*
X268000Y315500D01*
X268300Y314400D01*
Y310000D01*
G01X274100Y313100D02*
X277000D01*
G01X282300Y311300D02*
X283300Y310500D01*
X284300Y310000D01*
X285200D01*
X286100Y310500D01*
X286800Y311300D01*
X287200Y312400D01*
X286900Y313400D01*
X286400Y314400D01*
X285300Y315000D01*
X283900Y315300D01*
X283100Y316000D01*
X282800Y317000D01*
X283000Y318100D01*
X283600Y318900D01*
X284400Y319400D01*
X285200D01*
X286000Y319100D01*
X286700Y318300D01*
G01X296000Y310000D02*
Y316300D01*
G01Y315200D02*
X295600Y315800D01*
X294900Y316100D01*
X294100Y316300D01*
X293300Y316000D01*
X292600Y315300D01*
X292100Y314400D01*
X291900Y313100D01*
X292100Y311900D01*
X292600Y310900D01*
X293300Y310300D01*
X294100Y310000D01*
X294900Y310200D01*
X295600Y310600D01*
X296000Y311300D01*
G01X303100Y310000D02*
Y319400D01*
G01X312300Y316300D02*
Y310000D01*
G01Y318800D02*
X312100Y318900D01*
Y319200D01*
X312300Y319400D01*
X312600Y319200D01*
Y318900D01*
X312300Y318800D01*
G01X318100Y310000D02*
Y316300D01*
G01Y314500D02*
X318400Y315300D01*
X319000Y316000D01*
X319800Y316300D01*
X320600Y316000D01*
X321200Y315300D01*
X321500Y314500D01*
Y310000D01*
G01Y314500D02*
X321900Y315300D01*
X322500Y316000D01*
X323300Y316300D01*
X324100Y316000D01*
X324700Y315300D01*
X325000Y314400D01*
Y310000D01*
G01X161100Y662500D02*
Y671900D01*
X164000D01*
X164900Y671400D01*
X165500Y670800D01*
X165800Y669500D01*
X165500Y668300D01*
X164800Y667500D01*
X164000Y667000D01*
X161100D01*
G01X164000D02*
X165800Y662500D01*
G01X172600D02*
Y671900D01*
X171300Y670000D01*
G01Y662500D02*
X174000D01*
G01X168600Y770000D02*
Y779400D01*
X171500D01*
X172400Y778900D01*
X173000Y778300D01*
X173300Y777000D01*
X173000Y775800D01*
X172300Y775000D01*
X171500Y774500D01*
X168600D01*
G01X171500D02*
X173300Y770000D01*
G01X182500D02*
X177800D01*
Y779400D01*
X182500D01*
G01X180600Y774900D02*
X177800D01*
G01X186900Y771300D02*
X187900Y770500D01*
X188900Y770000D01*
X189800D01*
X190700Y770500D01*
X191400Y771300D01*
X191800Y772400D01*
X191500Y773400D01*
X191000Y774400D01*
X189900Y775000D01*
X188500Y775300D01*
X187700Y776000D01*
X187400Y777000D01*
X187600Y778100D01*
X188200Y778900D01*
X189000Y779400D01*
X189800D01*
X190600Y779100D01*
X191300Y778300D01*
G01X200900Y770000D02*
X196200D01*
Y779400D01*
X200900D01*
G01X199000Y774900D02*
X196200D01*
G01X207700Y779400D02*
Y770000D01*
G01X205100Y779400D02*
X210400D01*
G01X226000Y443600D02*
X225300Y444100D01*
X224500Y444400D01*
X223600D01*
X222500Y443900D01*
X221700Y443100D01*
X221100Y442200D01*
X220700Y440600D01*
X220600Y439200D01*
X220800Y437800D01*
X221100Y436900D01*
X221800Y435900D01*
X222600Y435300D01*
X223400Y435000D01*
X224300D01*
X225100Y435300D01*
X225800Y435800D01*
X226300Y436400D01*
G01X234000Y435000D02*
Y444400D01*
X229800Y437700D01*
X235500D01*
G01X263400Y445000D02*
Y449200D01*
X261100Y454400D01*
G01X265800D02*
X263400Y449200D01*
G01X272600Y445000D02*
Y454400D01*
X271300Y452500D01*
G01Y445000D02*
X274000D01*
G01X268500Y591100D02*
X267800Y591600D01*
X267000Y591900D01*
X266100D01*
X265000Y591400D01*
X264200Y590600D01*
X263600Y589700D01*
X263200Y588100D01*
X263100Y586700D01*
X263300Y585300D01*
X263600Y584400D01*
X264300Y583400D01*
X265100Y582800D01*
X265900Y582500D01*
X266800D01*
X267600Y582800D01*
X268300Y583300D01*
X268800Y583900D01*
G01X275100Y582500D02*
Y591900D01*
X273800Y590000D01*
G01Y582500D02*
X276500D01*
G01X256100Y662500D02*
Y671900D01*
X259000D01*
X259900Y671400D01*
X260500Y670800D01*
X260800Y669500D01*
X260500Y668300D01*
X259800Y667500D01*
X259000Y667000D01*
X256100D01*
G01X259000D02*
X260800Y662500D01*
G01X265100Y664400D02*
X265800Y663300D01*
X266700Y662700D01*
X267800Y662500D01*
X268700Y662700D01*
X269600Y663400D01*
X270200Y664400D01*
X270300Y665300D01*
X270100Y666400D01*
X269300Y667200D01*
X268500Y667500D01*
X267400D01*
G01X268500D02*
X269100Y668000D01*
X269700Y668800D01*
X270000Y669700D01*
X269700Y670600D01*
X269100Y671400D01*
X268100Y671900D01*
X267100Y671700D01*
X266000Y671100D01*
G01X266900Y777500D02*
X267300Y778000D01*
X267700Y778800D01*
X267900Y779900D01*
X267700Y780800D01*
X267200Y781400D01*
X266400Y781900D01*
X263300D01*
Y772500D01*
X267100D01*
X267900Y773100D01*
X268400Y774100D01*
X268600Y775200D01*
X268400Y776300D01*
X267700Y777200D01*
X266900Y777500D01*
X263300D01*
G01X272800Y772500D02*
Y781900D01*
X275600D01*
X276500Y781400D01*
X277200Y780300D01*
X277500Y779100D01*
X277200Y777800D01*
X276600Y776900D01*
X275600Y776400D01*
X272800D01*
G01X282200Y780300D02*
X282900Y781300D01*
X283700Y781700D01*
X284600Y781900D01*
X285700Y781600D01*
X286500Y780800D01*
X286800Y779900D01*
X286700Y778900D01*
X286200Y778100D01*
X283900Y776600D01*
X282900Y775500D01*
X282200Y773900D01*
X281900Y772500D01*
X286800D01*
G01X284100Y349700D02*
X286400D01*
Y346900D01*
X285800Y345900D01*
X284900Y345300D01*
X283800Y345000D01*
X282600Y345300D01*
X281800Y345900D01*
X281100Y346900D01*
X280700Y348000D01*
X280500Y349200D01*
Y350300D01*
X280700Y351300D01*
X281100Y352400D01*
X281800Y353300D01*
X282500Y353900D01*
X283400Y354400D01*
X284300D01*
X285200Y354100D01*
X285900Y353500D01*
G01X290000Y345000D02*
Y354400D01*
X295300Y345000D01*
Y354400D01*
G01X299300Y345000D02*
Y354400D01*
X301600D01*
X302500Y353900D01*
X303200Y353300D01*
X303800Y352400D01*
X304300Y351300D01*
X304400Y349700D01*
X304300Y348100D01*
X303800Y347000D01*
X303200Y346100D01*
X302500Y345500D01*
X301600Y345000D01*
X299300D01*
G01X316000Y383600D02*
X315300Y384100D01*
X314500Y384400D01*
X313600D01*
X312500Y383900D01*
X311700Y383100D01*
X311100Y382200D01*
X310700Y380600D01*
X310600Y379200D01*
X310800Y377800D01*
X311100Y376900D01*
X311800Y375900D01*
X312600Y375300D01*
X313400Y375000D01*
X314300D01*
X315100Y375300D01*
X315800Y375800D01*
X316300Y376400D01*
G01X320500Y382800D02*
X321200Y383800D01*
X322000Y384200D01*
X322900Y384400D01*
X324000Y384100D01*
X324800Y383300D01*
X325100Y382400D01*
X325000Y381400D01*
X324500Y380600D01*
X322200Y379100D01*
X321200Y378000D01*
X320500Y376400D01*
X320200Y375000D01*
X325100D01*
G01X358600Y387500D02*
Y396900D01*
X361400D01*
X362300Y396400D01*
X363000Y395300D01*
X363300Y394100D01*
X363000Y392800D01*
X362400Y391900D01*
X361400Y391400D01*
X358600D01*
G01X368800Y396900D02*
X371500D01*
G01X370100D02*
Y387500D01*
G01X368800D02*
X371500D01*
G01X381900Y396100D02*
X381200Y396600D01*
X380400Y396900D01*
X379500D01*
X378400Y396400D01*
X377600Y395600D01*
X377000Y394700D01*
X376600Y393100D01*
X376500Y391700D01*
X376700Y390300D01*
X377000Y389400D01*
X377700Y388400D01*
X378500Y387800D01*
X379300Y387500D01*
X380200D01*
X381000Y387800D01*
X381700Y388300D01*
X382200Y388900D01*
G01X341100Y662500D02*
Y671900D01*
X344000D01*
X344900Y671400D01*
X345500Y670800D01*
X345800Y669500D01*
X345500Y668300D01*
X344800Y667500D01*
X344000Y667000D01*
X341100D01*
G01X344000D02*
X345800Y662500D01*
G01X354000D02*
Y671900D01*
X349800Y665200D01*
X355500D01*
G01X356900Y777500D02*
X357300Y778000D01*
X357700Y778800D01*
X357900Y779900D01*
X357700Y780800D01*
X357200Y781400D01*
X356400Y781900D01*
X353300D01*
Y772500D01*
X357100D01*
X357900Y773100D01*
X358400Y774100D01*
X358600Y775200D01*
X358400Y776300D01*
X357700Y777200D01*
X356900Y777500D01*
X353300D01*
G01X362800Y772500D02*
Y781900D01*
X365600D01*
X366500Y781400D01*
X367200Y780300D01*
X367500Y779100D01*
X367200Y777800D01*
X366600Y776900D01*
X365600Y776400D01*
X362800D01*
G01X371800Y774400D02*
X372500Y773300D01*
X373400Y772700D01*
X374500Y772500D01*
X375400Y772700D01*
X376300Y773400D01*
X376900Y774400D01*
X377000Y775300D01*
X376800Y776400D01*
X376000Y777200D01*
X375200Y777500D01*
X374100D01*
G01X375200D02*
X375800Y778000D01*
X376400Y778800D01*
X376700Y779700D01*
X376400Y780600D01*
X375800Y781400D01*
X374800Y781900D01*
X373800Y781700D01*
X372700Y781100D01*
G01X448600Y670000D02*
Y679400D01*
X451500D01*
X452400Y678900D01*
X453000Y678300D01*
X453300Y677000D01*
X453000Y675800D01*
X452300Y675000D01*
X451500Y674500D01*
X448600D01*
G01X451500D02*
X453300Y670000D01*
G01X457600Y671400D02*
X458300Y670600D01*
X459100Y670200D01*
X460100Y670000D01*
X461200Y670300D01*
X462000Y670900D01*
X462600Y672000D01*
X462700Y673300D01*
X462500Y674500D01*
X461900Y675300D01*
X461100Y676000D01*
X460300Y676100D01*
X459500Y676000D01*
X458400Y675300D01*
X458800Y679400D01*
X461900D01*
G01X441900Y777500D02*
X442300Y778000D01*
X442700Y778800D01*
X442900Y779900D01*
X442700Y780800D01*
X442200Y781400D01*
X441400Y781900D01*
X438300D01*
Y772500D01*
X442100D01*
X442900Y773100D01*
X443400Y774100D01*
X443600Y775200D01*
X443400Y776300D01*
X442700Y777200D01*
X441900Y777500D01*
X438300D01*
G01X447800Y772500D02*
Y781900D01*
X450600D01*
X451500Y781400D01*
X452200Y780300D01*
X452500Y779100D01*
X452200Y777800D01*
X451600Y776900D01*
X450600Y776400D01*
X447800D01*
G01X460700Y772500D02*
Y781900D01*
X456500Y775200D01*
X462200D01*
G01X458600Y349400D02*
Y340000D01*
X463300D01*
G01X472700Y348600D02*
X472000Y349100D01*
X471200Y349400D01*
X470300D01*
X469200Y348900D01*
X468400Y348100D01*
X467800Y347200D01*
X467400Y345600D01*
X467300Y344200D01*
X467500Y342800D01*
X467800Y341900D01*
X468500Y340900D01*
X469300Y340300D01*
X470100Y340000D01*
X471000D01*
X471800Y340300D01*
X472500Y340800D01*
X473000Y341400D01*
G01X476800Y340000D02*
Y349400D01*
X479100D01*
X480000Y348900D01*
X480700Y348300D01*
X481300Y347400D01*
X481800Y346300D01*
X481900Y344700D01*
X481800Y343100D01*
X481300Y342000D01*
X480700Y341100D01*
X480000Y340500D01*
X479100Y340000D01*
X476800D01*
G01X536100Y735000D02*
Y744400D01*
X539000D01*
X539900Y743900D01*
X540500Y743300D01*
X540800Y742000D01*
X540500Y740800D01*
X539800Y740000D01*
X539000Y739500D01*
X536100D01*
G01X539000D02*
X540800Y735000D01*
G01X544200Y744400D02*
X545800Y735000D01*
X547600Y744400D01*
X549500Y735000D01*
X551100Y744400D01*
G01X538400Y776900D02*
Y767500D01*
G01X535800Y776900D02*
X541100D01*
G01X545200Y767500D02*
X550100Y776900D01*
G01X545200D02*
X550100Y767500D01*
G01X536100Y755800D02*
Y765200D01*
X539000D01*
X539900Y764700D01*
X540500Y764100D01*
X540800Y762800D01*
X540500Y761600D01*
X539800Y760800D01*
X539000Y760300D01*
X536100D01*
G01X539000D02*
X540800Y755800D01*
G01X545200D02*
X550100Y765200D01*
G01X545200D02*
X550100Y755800D01*
G01X536100Y744100D02*
Y753500D01*
X539000D01*
X539900Y753000D01*
X540500Y752400D01*
X540800Y751100D01*
X540500Y749900D01*
X539800Y749100D01*
X539000Y748600D01*
X536100D01*
G01X539000D02*
X540800Y744100D01*
G01X545200Y745400D02*
X546200Y744600D01*
X547200Y744100D01*
X548100D01*
X549000Y744600D01*
X549700Y745400D01*
X550100Y746500D01*
X549800Y747500D01*
X549300Y748500D01*
X548200Y749100D01*
X546800Y749400D01*
X546000Y750100D01*
X545700Y751100D01*
X545900Y752200D01*
X546500Y753000D01*
X547300Y753500D01*
X548100D01*
X548900Y753200D01*
X549600Y752400D01*
G01X524600Y861900D02*
X527300D01*
G01X525900D02*
Y852500D01*
G01X524600D02*
X527300D01*
G01X537700Y861100D02*
X537000Y861600D01*
X536200Y861900D01*
X535300D01*
X534200Y861400D01*
X533400Y860600D01*
X532800Y859700D01*
X532400Y858100D01*
X532300Y856700D01*
X532500Y855300D01*
X532800Y854400D01*
X533500Y853400D01*
X534300Y852800D01*
X535100Y852500D01*
X536000D01*
X536800Y852800D01*
X537500Y853300D01*
X538000Y853900D01*
G01X541800Y852500D02*
Y861900D01*
X544100D01*
X545000Y861400D01*
X545700Y860800D01*
X546300Y859900D01*
X546800Y858800D01*
X546900Y857200D01*
X546800Y855600D01*
X546300Y854500D01*
X545700Y853600D01*
X545000Y853000D01*
X544100Y852500D01*
X541800D01*
G01X573600Y305000D02*
Y314400D01*
X576400D01*
X577300Y313900D01*
X578000Y312800D01*
X578300Y311600D01*
X578000Y310300D01*
X577400Y309400D01*
X576400Y308900D01*
X573600D01*
G01X583500Y305000D02*
Y311300D01*
G01Y310000D02*
X584100Y310600D01*
X584700Y311100D01*
X585500Y311300D01*
X586100Y311100D01*
X586800Y310600D01*
G01X594300Y305000D02*
X593700Y305200D01*
X593000Y305800D01*
X592500Y306900D01*
X592300Y308100D01*
X592500Y309400D01*
X593000Y310500D01*
X593700Y311100D01*
X594300Y311300D01*
X595000Y311100D01*
X595700Y310500D01*
X596200Y309400D01*
X596300Y308100D01*
X596200Y306900D01*
X595700Y305800D01*
X595000Y305200D01*
X594300Y305000D01*
G01X601700Y302600D02*
X602500Y302000D01*
X603200Y301900D01*
X604100Y302200D01*
X604800Y303000D01*
X605200Y304400D01*
Y311300D01*
G01Y313800D02*
X604900Y313900D01*
Y314200D01*
X605200Y314400D01*
X605400Y314200D01*
Y313900D01*
X605200Y313800D01*
G01X611000Y309200D02*
X614700D01*
X614400Y310300D01*
X613800Y311000D01*
X613000Y311300D01*
X612200Y311100D01*
X611500Y310600D01*
X611000Y309500D01*
X610800Y308600D01*
Y307700D01*
X611000Y306700D01*
X611600Y305800D01*
X612300Y305200D01*
X613100Y305000D01*
X613900Y305300D01*
X614700Y306300D01*
G01X621900Y314400D02*
Y305000D01*
G01X620300Y311300D02*
X623600D01*
G01X641000Y309700D02*
X643300D01*
Y306900D01*
X642700Y305900D01*
X641800Y305300D01*
X640700Y305000D01*
X639500Y305300D01*
X638700Y305900D01*
X638000Y306900D01*
X637600Y308000D01*
X637400Y309200D01*
Y310300D01*
X637600Y311300D01*
X638000Y312400D01*
X638700Y313300D01*
X639400Y313900D01*
X640300Y314400D01*
X641200D01*
X642100Y314100D01*
X642800Y313500D01*
G01X647200Y305000D02*
Y314400D01*
X650000D01*
X650900Y313900D01*
X651600Y312800D01*
X651900Y311600D01*
X651600Y310300D01*
X651000Y309400D01*
X650000Y308900D01*
X647200D01*
G01X656300Y306300D02*
X657300Y305500D01*
X658300Y305000D01*
X659200D01*
X660100Y305500D01*
X660800Y306300D01*
X661200Y307400D01*
X660900Y308400D01*
X660400Y309400D01*
X659300Y310000D01*
X657900Y310300D01*
X657100Y311000D01*
X656800Y312000D01*
X657000Y313100D01*
X657600Y313900D01*
X658400Y314400D01*
X659200D01*
X660000Y314100D01*
X660700Y313300D01*
G01X604100Y708000D02*
X606400D01*
Y705200D01*
X605800Y704200D01*
X604900Y703600D01*
X603800Y703300D01*
X602600Y703600D01*
X601800Y704200D01*
X601100Y705200D01*
X600700Y706300D01*
X600500Y707500D01*
Y708600D01*
X600700Y709600D01*
X601100Y710700D01*
X601800Y711600D01*
X602500Y712200D01*
X603400Y712700D01*
X604300D01*
X605200Y712400D01*
X605900Y711800D01*
G01X610000Y703300D02*
Y712700D01*
X615300Y703300D01*
Y712700D01*
G01X619300Y703300D02*
Y712700D01*
X621600D01*
X622500Y712200D01*
X623200Y711600D01*
X623800Y710700D01*
X624300Y709600D01*
X624400Y708000D01*
X624300Y706400D01*
X623800Y705300D01*
X623200Y704400D01*
X622500Y703800D01*
X621600Y703300D01*
X619300D01*
G01X605800Y715000D02*
X601100D01*
Y724400D01*
X605800D01*
G01X603900Y719900D02*
X601100D01*
G01X644100Y744700D02*
X646400D01*
Y741900D01*
X645800Y740900D01*
X644900Y740300D01*
X643800Y740000D01*
X642600Y740300D01*
X641800Y740900D01*
X641100Y741900D01*
X640700Y743000D01*
X640500Y744200D01*
Y745300D01*
X640700Y746300D01*
X641100Y747400D01*
X641800Y748300D01*
X642500Y748900D01*
X643400Y749400D01*
X644300D01*
X645200Y749100D01*
X645900Y748500D01*
G01X650300Y740000D02*
Y749400D01*
X653100D01*
X654000Y748900D01*
X654700Y747800D01*
X655000Y746600D01*
X654700Y745300D01*
X654100Y744400D01*
X653100Y743900D01*
X650300D01*
G01X659400Y741300D02*
X660400Y740500D01*
X661400Y740000D01*
X662300D01*
X663200Y740500D01*
X663900Y741300D01*
X664300Y742400D01*
X664000Y743400D01*
X663500Y744400D01*
X662400Y745000D01*
X661000Y745300D01*
X660200Y746000D01*
X659900Y747000D01*
X660100Y748100D01*
X660700Y748900D01*
X661500Y749400D01*
X662300D01*
X663100Y749100D01*
X663800Y748300D01*
M02*
